<svg xmlns="http://www.w3.org/2000/svg" xmlns:xlink="http://www.w3.org/1999/xlink" width="908" height="1936" viewBox="0 0 908 1936" role="img" aria-label="E4：creative 旁路与轻量末端"><rect width="100%" height="100%" fill="#ffffff"/><g font-family="Heiti SC, PingFang SC, Microsoft YaHei, Arial, sans-serif"><text x="30" y="35" font-size="24" font-weight="600" fill="#173650">E4：creative 旁路与轻量末端</text><text x="30" y="67" font-size="16" fill="#526477">对照：Small</text><rect x="30" y="91" width="15" height="15" rx="3" fill="#fff0d4" stroke="#ca8425"/><text x="53" y="104" font-size="14" fill="#526477">本版改动 / 本图重点</text><rect x="230" y="91" width="15" height="15" rx="3" fill="#edf4fc" stroke="#7290b1"/><text x="253" y="104" font-size="14" fill="#526477">沿用模块</text><text x="405" y="104" font-size="14" fill="#526477">实线：数据流　虚线：说明或对照</text></g><g transform="translate(24 139)">
<g id="graph0" class="graph" transform="scale(1 1) rotate(0) translate(12.96 1741.6)">
<title>G</title>
<g id="clust1" class="cluster">
<title>cluster_main</title>
<path fill="none" stroke="#c5d1de" d="M20,-479.2C20,-479.2 540,-479.2 540,-479.2 546,-479.2 552,-485.2 552,-491.2 552,-491.2 552,-1523.2 552,-1523.2 552,-1529.2 546,-1535.2 540,-1535.2 540,-1535.2 20,-1535.2 20,-1535.2 14,-1535.2 8,-1529.2 8,-1523.2 8,-1523.2 8,-491.2 8,-491.2 8,-485.2 14,-479.2 20,-479.2"/>
<text xml:space="preserve" text-anchor="middle" x="280" y="-1515" font-family="Heiti SC, PingFang SC, Microsoft YaHei, Arial, sans-serif" font-size="18.00" fill="#425b75">common/item 主干</text>
</g>
<g id="clust2" class="cluster">
<title>cluster_creative</title>
<path fill="none" stroke="#c5d1de" d="M572,-980C572,-980 814,-980 814,-980 820,-980 826,-986 826,-992 826,-992 826,-1512.4 826,-1512.4 826,-1518.4 820,-1524.4 814,-1524.4 814,-1524.4 572,-1524.4 572,-1524.4 566,-1524.4 560,-1518.4 560,-1512.4 560,-1512.4 560,-992 560,-992 560,-986 566,-980 572,-980"/>
<text xml:space="preserve" text-anchor="middle" x="693" y="-1504.2" font-family="Heiti SC, PingFang SC, Microsoft YaHei, Arial, sans-serif" font-size="18.00" fill="#425b75">creative 独立旁路</text>
</g>
<!-- input -->
<g id="node1" class="node">
<title>input</title>
<path fill="#e9f5ef" stroke="#6a9e84" stroke-width="1.1" d="M495.99,-1728.64C495.99,-1728.64 342.01,-1728.64 342.01,-1728.64 336.01,-1728.64 330.01,-1722.64 330.01,-1716.64 330.01,-1716.64 330.01,-1678.72 330.01,-1678.72 330.01,-1672.72 336.01,-1666.72 342.01,-1666.72 342.01,-1666.72 495.99,-1666.72 495.99,-1666.72 501.99,-1666.72 507.99,-1672.72 507.99,-1678.72 507.99,-1678.72 507.99,-1716.64 507.99,-1716.64 507.99,-1722.64 501.99,-1728.64 495.99,-1728.64"/>
<text xml:space="preserve" text-anchor="middle" x="419" y="-1703.08" font-family="Heiti SC, PingFang SC, Microsoft YaHei, Arial, sans-serif" font-size="18.00" fill="#174b34">三桶字段输入</text>
<text xml:space="preserve" text-anchor="middle" x="419" y="-1681.48" font-family="Heiti SC, PingFang SC, Microsoft YaHei, Arial, sans-serif" font-size="18.00" fill="#174b34">1234字段 × 17维</text>
</g>
<!-- bn -->
<g id="node2" class="node">
<title>bn</title>
<path fill="#edf4fc" stroke="#7290b1" stroke-width="1.1" d="M547.29,-1635.72C547.29,-1635.72 290.71,-1635.72 290.71,-1635.72 284.71,-1635.72 278.71,-1629.72 278.71,-1623.72 278.71,-1623.72 278.71,-1585.8 278.71,-1585.8 278.71,-1579.8 284.71,-1573.8 290.71,-1573.8 290.71,-1573.8 547.29,-1573.8 547.29,-1573.8 553.29,-1573.8 559.29,-1579.8 559.29,-1585.8 559.29,-1585.8 559.29,-1623.72 559.29,-1623.72 559.29,-1629.72 553.29,-1635.72 547.29,-1635.72"/>
<text xml:space="preserve" text-anchor="middle" x="419" y="-1610.16" font-family="Heiti SC, PingFang SC, Microsoft YaHei, Arial, sans-serif" font-size="18.00" fill="#183a5e">入口分桶 BN</text>
<text xml:space="preserve" text-anchor="middle" x="419" y="-1588.56" font-family="Heiti SC, PingFang SC, Microsoft YaHei, Arial, sans-serif" font-size="18.00" fill="#183a5e">common / item / creative</text>
</g>
<!-- input&#45;&gt;bn -->
<g id="edge1" class="edge">
<title>input&#45;&gt;bn</title>
<path fill="none" stroke="#607388" stroke-width="1.15" d="M419,-1666.4C419,-1659.58 419,-1652.23 419,-1645.09"/>
<polygon fill="#607388" stroke="#607388" stroke-width="1.15" points="421.63,-1645.45 419,-1637.95 416.38,-1645.45 421.63,-1645.45"/>
</g>
<!-- ci_senet -->
<g id="node3" class="node">
<title>ci_senet</title>
<path fill="#edf4fc" stroke="#7290b1" stroke-width="1.1" d="M265.97,-1489.6C265.97,-1489.6 36.03,-1489.6 36.03,-1489.6 30.03,-1489.6 24.03,-1483.6 24.03,-1477.6 24.03,-1477.6 24.03,-1418.08 24.03,-1418.08 24.03,-1412.08 30.03,-1406.08 36.03,-1406.08 36.03,-1406.08 265.97,-1406.08 265.97,-1406.08 271.97,-1406.08 277.97,-1412.08 277.97,-1418.08 277.97,-1418.08 277.97,-1477.6 277.97,-1477.6 277.97,-1483.6 271.97,-1489.6 265.97,-1489.6"/>
<text xml:space="preserve" text-anchor="middle" x="151" y="-1464.04" font-family="Heiti SC, PingFang SC, Microsoft YaHei, Arial, sans-serif" font-size="18.00" fill="#183a5e">common/item 字段 SENet</text>
<text xml:space="preserve" text-anchor="middle" x="151" y="-1442.44" font-family="Heiti SC, PingFang SC, Microsoft YaHei, Arial, sans-serif" font-size="18.00" fill="#183a5e">common 依赖自身</text>
<text xml:space="preserve" text-anchor="middle" x="151" y="-1420.84" font-family="Heiti SC, PingFang SC, Microsoft YaHei, Arial, sans-serif" font-size="18.00" fill="#183a5e">item 依赖 common+item</text>
</g>
<!-- bn&#45;&gt;ci_senet -->
<g id="edge2" class="edge">
<title>bn&#45;&gt;ci_senet</title>
<path fill="none" stroke="#607388" stroke-width="1.15" d="M361.67,-1573.29C327.21,-1554.98 290,-1535.2 290,-1535.2 290,-1535.2 258.06,-1515.35 224.8,-1494.69"/>
<polygon fill="#607388" stroke="#607388" stroke-width="1.15" points="226.48,-1492.64 218.72,-1490.92 223.71,-1497.1 226.48,-1492.64"/>
<text xml:space="preserve" text-anchor="middle" x="370.74" y="-1547.1" font-family="Heiti SC, PingFang SC, Microsoft YaHei, Arial, sans-serif" font-size="13.00" fill="#3b5065">common/item</text>
</g>
<!-- a_senet -->
<g id="node4" class="node">
<title>a_senet</title>
<path fill="#fff0d4" stroke="#ca8425" stroke-width="1.1" d="M795.09,-1478.8C795.09,-1478.8 588.91,-1478.8 588.91,-1478.8 582.91,-1478.8 576.91,-1472.8 576.91,-1466.8 576.91,-1466.8 576.91,-1428.88 576.91,-1428.88 576.91,-1422.88 582.91,-1416.88 588.91,-1416.88 588.91,-1416.88 795.09,-1416.88 795.09,-1416.88 801.09,-1416.88 807.09,-1422.88 807.09,-1428.88 807.09,-1428.88 807.09,-1466.8 807.09,-1466.8 807.09,-1472.8 801.09,-1478.8 795.09,-1478.8"/>
<text xml:space="preserve" text-anchor="middle" x="692" y="-1453.24" font-family="Heiti SC, PingFang SC, Microsoft YaHei, Arial, sans-serif" font-size="18.00" fill="#71400d">creative 独立 SENet</text>
<text xml:space="preserve" text-anchor="middle" x="692" y="-1431.64" font-family="Heiti SC, PingFang SC, Microsoft YaHei, Arial, sans-serif" font-size="18.00" fill="#71400d">gate 仅依赖 creative</text>
</g>
<!-- bn&#45;&gt;a_senet -->
<g id="edge3" class="edge">
<title>bn&#45;&gt;a_senet</title>
<path fill="none" stroke="#607388" stroke-width="1.15" d="M480.78,-1573.29C517.9,-1554.98 558,-1535.2 558,-1535.2 558,-1535.2 600.34,-1507.91 637.42,-1484.01"/>
<polygon fill="#607388" stroke="#607388" stroke-width="1.15" points="638.41,-1486.5 643.29,-1480.23 635.57,-1482.09 638.41,-1486.5"/>
<text xml:space="preserve" text-anchor="middle" x="563.54" y="-1547.1" font-family="Heiti SC, PingFang SC, Microsoft YaHei, Arial, sans-serif" font-size="13.00" fill="#3b5065">creative</text>
</g>
<!-- raw_ci -->
<g id="node7" class="node">
<title>raw_ci</title>
<path fill="#fff0d4" stroke="#ca8425" stroke-width="1.1" d="M523.53,-1478.8C523.53,-1478.8 314.47,-1478.8 314.47,-1478.8 308.47,-1478.8 302.47,-1472.8 302.47,-1466.8 302.47,-1466.8 302.47,-1428.88 302.47,-1428.88 302.47,-1422.88 308.47,-1416.88 314.47,-1416.88 314.47,-1416.88 523.53,-1416.88 523.53,-1416.88 529.53,-1416.88 535.53,-1422.88 535.53,-1428.88 535.53,-1428.88 535.53,-1466.8 535.53,-1466.8 535.53,-1472.8 529.53,-1478.8 523.53,-1478.8"/>
<text xml:space="preserve" text-anchor="middle" x="419" y="-1453.24" font-family="Heiti SC, PingFang SC, Microsoft YaHei, Arial, sans-serif" font-size="18.00" fill="#71400d">取 BN 后 common/item</text>
<text xml:space="preserve" text-anchor="middle" x="419" y="-1431.64" font-family="Heiti SC, PingFang SC, Microsoft YaHei, Arial, sans-serif" font-size="18.00" fill="#71400d">SENet 前，共 20740维</text>
</g>
<!-- bn&#45;&gt;raw_ci -->
<g id="edge6" class="edge">
<title>bn&#45;&gt;raw_ci</title>
<path fill="none" stroke="#607388" stroke-width="1.15" d="M419,-1573.52C419,-1549.18 419,-1514.78 419,-1488.28"/>
<polygon fill="#607388" stroke="#607388" stroke-width="1.15" points="421.63,-1488.51 419,-1481.01 416.38,-1488.51 421.63,-1488.51"/>
<text xml:space="preserve" text-anchor="middle" x="450.43" y="-1547.1" font-family="Heiti SC, PingFang SC, Microsoft YaHei, Arial, sans-serif" font-size="13.00" fill="#3b5065">绕过 SENet</text>
</g>
<!-- groups -->
<g id="node5" class="node">
<title>groups</title>
<path fill="#fff0d4" stroke="#ca8425" stroke-width="1.1" d="M269.19,-1375.08C269.19,-1375.08 64.81,-1375.08 64.81,-1375.08 58.81,-1375.08 52.81,-1369.08 52.81,-1363.08 52.81,-1363.08 52.81,-1303.56 52.81,-1303.56 52.81,-1297.56 58.81,-1291.56 64.81,-1291.56 64.81,-1291.56 269.19,-1291.56 269.19,-1291.56 275.19,-1291.56 281.19,-1297.56 281.19,-1303.56 281.19,-1303.56 281.19,-1363.08 281.19,-1363.08 281.19,-1369.08 275.19,-1375.08 269.19,-1375.08"/>
<text xml:space="preserve" text-anchor="middle" x="167" y="-1349.52" font-family="Heiti SC, PingFang SC, Microsoft YaHei, Arial, sans-serif" font-size="18.00" fill="#71400d">主干固定语义组</text>
<text xml:space="preserve" text-anchor="middle" x="167" y="-1327.92" font-family="Heiti SC, PingFang SC, Microsoft YaHei, Arial, sans-serif" font-size="18.00" fill="#71400d">10 common + 21 item</text>
<text xml:space="preserve" text-anchor="middle" x="167" y="-1306.32" font-family="Heiti SC, PingFang SC, Microsoft YaHei, Arial, sans-serif" font-size="18.00" fill="#71400d">无 creative Local</text>
</g>
<!-- ci_senet&#45;&gt;groups -->
<g id="edge4" class="edge">
<title>ci_senet&#45;&gt;groups</title>
<path fill="none" stroke="#607388" stroke-width="1.15" d="M156.87,-1405.58C157.85,-1398.7 158.87,-1391.5 159.87,-1384.43"/>
<polygon fill="#607388" stroke="#607388" stroke-width="1.15" points="162.43,-1385.09 160.89,-1377.3 157.23,-1384.35 162.43,-1385.09"/>
</g>
<!-- a_fc1 -->
<g id="node14" class="node">
<title>a_fc1</title>
<path fill="#fff0d4" stroke="#ca8425" stroke-width="1.1" d="M797.53,-1375.08C797.53,-1375.08 588.47,-1375.08 588.47,-1375.08 582.47,-1375.08 576.47,-1369.08 576.47,-1363.08 576.47,-1363.08 576.47,-1303.56 576.47,-1303.56 576.47,-1297.56 582.47,-1291.56 588.47,-1291.56 588.47,-1291.56 797.53,-1291.56 797.53,-1291.56 803.53,-1291.56 809.53,-1297.56 809.53,-1303.56 809.53,-1303.56 809.53,-1363.08 809.53,-1363.08 809.53,-1369.08 803.53,-1375.08 797.53,-1375.08"/>
<text xml:space="preserve" text-anchor="middle" x="693" y="-1349.52" font-family="Heiti SC, PingFang SC, Microsoft YaHei, Arial, sans-serif" font-size="18.00" fill="#71400d">creative：238 → 256</text>
<text xml:space="preserve" text-anchor="middle" x="693" y="-1327.92" font-family="Heiti SC, PingFang SC, Microsoft YaHei, Arial, sans-serif" font-size="18.00" fill="#71400d">Dense + BN</text>
<text xml:space="preserve" text-anchor="middle" x="693" y="-1306.32" font-family="Heiti SC, PingFang SC, Microsoft YaHei, Arial, sans-serif" font-size="18.00" fill="#71400d">参数化 Swish</text>
</g>
<!-- a_senet&#45;&gt;a_fc1 -->
<g id="edge14" class="edge">
<title>a_senet&#45;&gt;a_fc1</title>
<path fill="none" stroke="#607388" stroke-width="1.15" d="M692.27,-1416.39C692.36,-1406.53 692.46,-1395.31 692.55,-1384.41"/>
<polygon fill="#607388" stroke="#607388" stroke-width="1.15" points="695.18,-1384.62 692.62,-1377.1 689.93,-1384.58 695.18,-1384.62"/>
</g>
<!-- local -->
<g id="node6" class="node">
<title>local</title>
<path fill="#edf4fc" stroke="#7290b1" stroke-width="1.1" d="M350.97,-1156.44C350.97,-1156.44 139.03,-1156.44 139.03,-1156.44 133.03,-1156.44 127.03,-1150.44 127.03,-1144.44 127.03,-1144.44 127.03,-1106.52 127.03,-1106.52 127.03,-1100.52 133.03,-1094.52 139.03,-1094.52 139.03,-1094.52 350.97,-1094.52 350.97,-1094.52 356.97,-1094.52 362.97,-1100.52 362.97,-1106.52 362.97,-1106.52 362.97,-1144.44 362.97,-1144.44 362.97,-1150.44 356.97,-1156.44 350.97,-1156.44"/>
<text xml:space="preserve" text-anchor="middle" x="245" y="-1130.88" font-family="Heiti SC, PingFang SC, Microsoft YaHei, Arial, sans-serif" font-size="18.00" fill="#183a5e">Local：Linear + GELU</text>
<text xml:space="preserve" text-anchor="middle" x="245" y="-1109.28" font-family="Heiti SC, PingFang SC, Microsoft YaHei, Arial, sans-serif" font-size="18.00" fill="#183a5e">31 × 256 + RMSNorm</text>
</g>
<!-- groups&#45;&gt;local -->
<g id="edge5" class="edge">
<title>groups&#45;&gt;local</title>
<path fill="none" stroke="#607388" stroke-width="1.15" d="M182.6,-1291.16C196.51,-1254.45 216.72,-1201.1 230.34,-1165.16"/>
<polygon fill="#607388" stroke="#607388" stroke-width="1.15" points="232.66,-1166.44 232.87,-1158.5 227.75,-1164.58 232.66,-1166.44"/>
</g>
<!-- concat -->
<g id="node9" class="node">
<title>concat</title>
<path fill="#edf4fc" stroke="#7290b1" stroke-width="1.1" d="M521.19,-972C521.19,-972 316.81,-972 316.81,-972 310.81,-972 304.81,-966 304.81,-960 304.81,-960 304.81,-922.08 304.81,-922.08 304.81,-916.08 310.81,-910.08 316.81,-910.08 316.81,-910.08 521.19,-910.08 521.19,-910.08 527.19,-910.08 533.19,-916.08 533.19,-922.08 533.19,-922.08 533.19,-960 533.19,-960 533.19,-966 527.19,-972 521.19,-972"/>
<text xml:space="preserve" text-anchor="middle" x="419" y="-946.44" font-family="Heiti SC, PingFang SC, Microsoft YaHei, Arial, sans-serif" font-size="18.00" fill="#183a5e">31 Local + 1 Global</text>
<text xml:space="preserve" text-anchor="middle" x="419" y="-924.84" font-family="Heiti SC, PingFang SC, Microsoft YaHei, Arial, sans-serif" font-size="18.00" fill="#183a5e">32 × 256</text>
</g>
<!-- local&#45;&gt;concat -->
<g id="edge8" class="edge">
<title>local&#45;&gt;concat</title>
<path fill="none" stroke="#607388" stroke-width="1.15" d="M273.73,-1094.35C303.87,-1062.76 351.26,-1013.06 383.66,-979.09"/>
<polygon fill="#607388" stroke="#607388" stroke-width="1.15" points="385.46,-981.01 388.73,-973.77 381.66,-977.39 385.46,-981.01"/>
</g>
<!-- global -->
<g id="node8" class="node">
<title>global</title>
<path fill="#fff0d4" stroke="#ca8425" stroke-width="1.1" d="M518.31,-1276.56C518.31,-1276.56 319.69,-1276.56 319.69,-1276.56 313.69,-1276.56 307.69,-1270.56 307.69,-1264.56 307.69,-1264.56 307.69,-1183.44 307.69,-1183.44 307.69,-1177.44 313.69,-1171.44 319.69,-1171.44 319.69,-1171.44 518.31,-1171.44 518.31,-1171.44 524.31,-1171.44 530.31,-1177.44 530.31,-1183.44 530.31,-1183.44 530.31,-1264.56 530.31,-1264.56 530.31,-1270.56 524.31,-1276.56 518.31,-1276.56"/>
<text xml:space="preserve" text-anchor="middle" x="419" y="-1251" font-family="Heiti SC, PingFang SC, Microsoft YaHei, Arial, sans-serif" font-size="18.00" fill="#71400d">Global 投影</text>
<text xml:space="preserve" text-anchor="middle" x="419" y="-1229.4" font-family="Heiti SC, PingFang SC, Microsoft YaHei, Arial, sans-serif" font-size="18.00" fill="#71400d">20740 → 256 → 256</text>
<text xml:space="preserve" text-anchor="middle" x="419" y="-1207.8" font-family="Heiti SC, PingFang SC, Microsoft YaHei, Arial, sans-serif" font-size="18.00" fill="#71400d">RMSNorm</text>
<text xml:space="preserve" text-anchor="middle" x="419" y="-1186.2" font-family="Heiti SC, PingFang SC, Microsoft YaHei, Arial, sans-serif" font-size="18.00" fill="#71400d">首层GELU，次层线性</text>
</g>
<!-- raw_ci&#45;&gt;global -->
<g id="edge7" class="edge">
<title>raw_ci&#45;&gt;global</title>
<path fill="none" stroke="#607388" stroke-width="1.15" d="M419,-1416.46C419,-1382.96 419,-1328.2 419,-1285.81"/>
<polygon fill="#607388" stroke="#607388" stroke-width="1.15" points="421.63,-1285.93 419,-1278.43 416.38,-1285.93 421.63,-1285.93"/>
</g>
<!-- global&#45;&gt;concat -->
<g id="edge9" class="edge">
<title>global&#45;&gt;concat</title>
<path fill="none" stroke="#607388" stroke-width="1.15" d="M419,-1171.14C419,-1116.32 419,-1031.08 419,-981.49"/>
<polygon fill="#607388" stroke="#607388" stroke-width="1.15" points="421.63,-981.61 419,-974.11 416.38,-981.61 421.63,-981.61"/>
</g>
<!-- block1 -->
<g id="node10" class="node">
<title>block1</title>
<path fill="#edf4fc" stroke="#7290b1" stroke-width="1.1" d="M518.09,-879.08C518.09,-879.08 329.91,-879.08 329.91,-879.08 323.91,-879.08 317.91,-873.08 317.91,-867.08 317.91,-867.08 317.91,-807.56 317.91,-807.56 317.91,-801.56 323.91,-795.56 329.91,-795.56 329.91,-795.56 518.09,-795.56 518.09,-795.56 524.09,-795.56 530.09,-801.56 530.09,-807.56 530.09,-807.56 530.09,-867.08 530.09,-867.08 530.09,-873.08 524.09,-879.08 518.09,-879.08"/>
<text xml:space="preserve" text-anchor="middle" x="424" y="-853.52" font-family="Heiti SC, PingFang SC, Microsoft YaHei, Arial, sans-serif" font-size="18.00" fill="#183a5e">Block 1：双 SwiGLU</text>
<text xml:space="preserve" text-anchor="middle" x="424" y="-831.92" font-family="Heiti SC, PingFang SC, Microsoft YaHei, Arial, sans-serif" font-size="18.00" fill="#183a5e">D256 / M704</text>
<text xml:space="preserve" text-anchor="middle" x="424" y="-810.32" font-family="Heiti SC, PingFang SC, Microsoft YaHei, Arial, sans-serif" font-size="18.00" fill="#183a5e">PreNorm：RMSNorm</text>
</g>
<!-- concat&#45;&gt;block1 -->
<g id="edge10" class="edge">
<title>concat&#45;&gt;block1</title>
<path fill="none" stroke="#607388" stroke-width="1.15" d="M420.49,-909.8C420.81,-903.13 421.17,-895.89 421.53,-888.66"/>
<polygon fill="#607388" stroke="#607388" stroke-width="1.15" points="424.14,-888.92 421.89,-881.3 418.9,-888.66 424.14,-888.92"/>
</g>
<!-- block2 -->
<g id="node11" class="node">
<title>block2</title>
<path fill="#edf4fc" stroke="#7290b1" stroke-width="1.1" d="M522.09,-764.56C522.09,-764.56 333.91,-764.56 333.91,-764.56 327.91,-764.56 321.91,-758.56 321.91,-752.56 321.91,-752.56 321.91,-693.04 321.91,-693.04 321.91,-687.04 327.91,-681.04 333.91,-681.04 333.91,-681.04 522.09,-681.04 522.09,-681.04 528.09,-681.04 534.09,-687.04 534.09,-693.04 534.09,-693.04 534.09,-752.56 534.09,-752.56 534.09,-758.56 528.09,-764.56 522.09,-764.56"/>
<text xml:space="preserve" text-anchor="middle" x="428" y="-739" font-family="Heiti SC, PingFang SC, Microsoft YaHei, Arial, sans-serif" font-size="18.00" fill="#183a5e">Block 2：双 SwiGLU</text>
<text xml:space="preserve" text-anchor="middle" x="428" y="-717.4" font-family="Heiti SC, PingFang SC, Microsoft YaHei, Arial, sans-serif" font-size="18.00" fill="#183a5e">D256 / M704</text>
<text xml:space="preserve" text-anchor="middle" x="428" y="-695.8" font-family="Heiti SC, PingFang SC, Microsoft YaHei, Arial, sans-serif" font-size="18.00" fill="#183a5e">PreNorm：RMSNorm</text>
</g>
<!-- block1&#45;&gt;block2 -->
<g id="edge11" class="edge">
<title>block1&#45;&gt;block2</title>
<path fill="none" stroke="#607388" stroke-width="1.15" d="M425.47,-795.06C425.71,-788.18 425.97,-780.98 426.22,-773.91"/>
<polygon fill="#607388" stroke="#607388" stroke-width="1.15" points="428.83,-774.38 426.47,-766.79 423.58,-774.2 428.83,-774.38"/>
</g>
<!-- norm -->
<g id="node12" class="node">
<title>norm</title>
<path fill="#fff0d4" stroke="#ca8425" stroke-width="1.1" d="M523.21,-650.04C523.21,-650.04 340.79,-650.04 340.79,-650.04 334.79,-650.04 328.79,-644.04 328.79,-638.04 328.79,-638.04 328.79,-600.12 328.79,-600.12 328.79,-594.12 334.79,-588.12 340.79,-588.12 340.79,-588.12 523.21,-588.12 523.21,-588.12 529.21,-588.12 535.21,-594.12 535.21,-600.12 535.21,-600.12 535.21,-638.04 535.21,-638.04 535.21,-644.04 529.21,-650.04 523.21,-650.04"/>
<text xml:space="preserve" text-anchor="middle" x="432" y="-624.48" font-family="Heiti SC, PingFang SC, Microsoft YaHei, Arial, sans-serif" font-size="18.00" fill="#71400d">最终共享 LayerNorm</text>
<text xml:space="preserve" text-anchor="middle" x="432" y="-602.88" font-family="Heiti SC, PingFang SC, Microsoft YaHei, Arial, sans-serif" font-size="18.00" fill="#71400d">γ / β：[256]</text>
</g>
<!-- block2&#45;&gt;norm -->
<g id="edge12" class="edge">
<title>block2&#45;&gt;norm</title>
<path fill="none" stroke="#607388" stroke-width="1.15" d="M429.62,-680.72C429.89,-673.74 430.17,-666.51 430.45,-659.58"/>
<polygon fill="#607388" stroke="#607388" stroke-width="1.15" points="433.07,-659.7 430.74,-652.1 427.82,-659.49 433.07,-659.7"/>
</g>
<!-- mean -->
<g id="node13" class="node">
<title>mean</title>
<path fill="#fff0d4" stroke="#ca8425" stroke-width="1.1" d="M516.87,-557.12C516.87,-557.12 357.13,-557.12 357.13,-557.12 351.13,-557.12 345.13,-551.12 345.13,-545.12 345.13,-545.12 345.13,-507.2 345.13,-507.2 345.13,-501.2 351.13,-495.2 357.13,-495.2 357.13,-495.2 516.87,-495.2 516.87,-495.2 522.87,-495.2 528.87,-501.2 528.87,-507.2 528.87,-507.2 528.87,-545.12 528.87,-545.12 528.87,-551.12 522.87,-557.12 516.87,-557.12"/>
<text xml:space="preserve" text-anchor="middle" x="437" y="-531.56" font-family="Heiti SC, PingFang SC, Microsoft YaHei, Arial, sans-serif" font-size="18.00" fill="#71400d">MeanPool</text>
<text xml:space="preserve" text-anchor="middle" x="437" y="-509.96" font-family="Heiti SC, PingFang SC, Microsoft YaHei, Arial, sans-serif" font-size="18.00" fill="#71400d">32 × 256 → 256</text>
</g>
<!-- norm&#45;&gt;mean -->
<g id="edge13" class="edge">
<title>norm&#45;&gt;mean</title>
<path fill="none" stroke="#607388" stroke-width="1.15" d="M433.66,-587.8C434.04,-580.98 434.44,-573.63 434.84,-566.49"/>
<polygon fill="#607388" stroke="#607388" stroke-width="1.15" points="437.44,-566.98 435.23,-559.35 432.2,-566.7 437.44,-566.98"/>
</g>
<!-- fuse -->
<g id="node16" class="node">
<title>fuse</title>
<path fill="#fff0d4" stroke="#ca8425" stroke-width="1.1" d="M623.09,-455.2C623.09,-455.2 452.91,-455.2 452.91,-455.2 446.91,-455.2 440.91,-449.2 440.91,-443.2 440.91,-443.2 440.91,-383.68 440.91,-383.68 440.91,-377.68 446.91,-371.68 452.91,-371.68 452.91,-371.68 623.09,-371.68 623.09,-371.68 629.09,-371.68 635.09,-377.68 635.09,-383.68 635.09,-383.68 635.09,-443.2 635.09,-443.2 635.09,-449.2 629.09,-455.2 623.09,-455.2"/>
<text xml:space="preserve" text-anchor="middle" x="538" y="-429.64" font-family="Heiti SC, PingFang SC, Microsoft YaHei, Arial, sans-serif" font-size="18.00" fill="#71400d">直接拼接</text>
<text xml:space="preserve" text-anchor="middle" x="538" y="-408.04" font-family="Heiti SC, PingFang SC, Microsoft YaHei, Arial, sans-serif" font-size="18.00" fill="#71400d">256 + 32 = 288维</text>
<text xml:space="preserve" text-anchor="middle" x="538" y="-386.44" font-family="Heiti SC, PingFang SC, Microsoft YaHei, Arial, sans-serif" font-size="18.00" fill="#71400d">拼接前无额外 Norm</text>
</g>
<!-- mean&#45;&gt;fuse -->
<g id="edge16" class="edge">
<title>mean&#45;&gt;fuse</title>
<path fill="none" stroke="#607388" stroke-width="1.15" d="M464.6,-494.91C473.79,-484.83 484.26,-473.35 494.36,-462.28"/>
<polygon fill="#607388" stroke="#607388" stroke-width="1.15" points="496.3,-464.05 499.42,-456.74 492.42,-460.51 496.3,-464.05"/>
</g>
<!-- a_fc2 -->
<g id="node15" class="node">
<title>a_fc2</title>
<path fill="#fff0d4" stroke="#ca8425" stroke-width="1.1" d="M789.31,-1079.52C789.31,-1079.52 590.69,-1079.52 590.69,-1079.52 584.69,-1079.52 578.69,-1073.52 578.69,-1067.52 578.69,-1067.52 578.69,-1008 578.69,-1008 578.69,-1002 584.69,-996 590.69,-996 590.69,-996 789.31,-996 789.31,-996 795.31,-996 801.31,-1002 801.31,-1008 801.31,-1008 801.31,-1067.52 801.31,-1067.52 801.31,-1073.52 795.31,-1079.52 789.31,-1079.52"/>
<text xml:space="preserve" text-anchor="middle" x="690" y="-1053.96" font-family="Heiti SC, PingFang SC, Microsoft YaHei, Arial, sans-serif" font-size="18.00" fill="#71400d">creative：256 → 32</text>
<text xml:space="preserve" text-anchor="middle" x="690" y="-1032.36" font-family="Heiti SC, PingFang SC, Microsoft YaHei, Arial, sans-serif" font-size="18.00" fill="#71400d">Dense + BN</text>
<text xml:space="preserve" text-anchor="middle" x="690" y="-1010.76" font-family="Heiti SC, PingFang SC, Microsoft YaHei, Arial, sans-serif" font-size="18.00" fill="#71400d">参数化 Swish</text>
</g>
<!-- a_fc1&#45;&gt;a_fc2 -->
<g id="edge15" class="edge">
<title>a_fc1&#45;&gt;a_fc2</title>
<path fill="none" stroke="#607388" stroke-width="1.15" d="M692.58,-1291.19C692.04,-1238.13 691.09,-1145.87 690.51,-1088.8"/>
<polygon fill="#607388" stroke="#607388" stroke-width="1.15" points="693.14,-1088.82 690.44,-1081.35 687.89,-1088.88 693.14,-1088.82"/>
</g>
<!-- a_fc2&#45;&gt;fuse -->
<g id="edge17" class="edge">
<title>a_fc2&#45;&gt;fuse</title>
<path fill="none" stroke="#607388" stroke-width="1.15" d="M675.25,-995.78C660.19,-953.94 639,-895.08 639,-895.08 639,-895.08 639,-895.08 639,-525.16 639,-525.16 609.03,-492.3 581.74,-462.39"/>
<polygon fill="#607388" stroke="#607388" stroke-width="1.15" points="583.78,-460.73 576.78,-456.95 579.9,-464.26 583.78,-460.73"/>
<text xml:space="preserve" text-anchor="middle" x="675.12" y="-718.9" font-family="Heiti SC, PingFang SC, Microsoft YaHei, Arial, sans-serif" font-size="13.00" fill="#3b5065">独立 32维旁路</text>
</g>
<!-- head1 -->
<g id="node17" class="node">
<title>head1</title>
<path fill="#fff0d4" stroke="#ca8425" stroke-width="1.1" d="M629.75,-340.68C629.75,-340.68 446.25,-340.68 446.25,-340.68 440.25,-340.68 434.25,-334.68 434.25,-328.68 434.25,-328.68 434.25,-290.76 434.25,-290.76 434.25,-284.76 440.25,-278.76 446.25,-278.76 446.25,-278.76 629.75,-278.76 629.75,-278.76 635.75,-278.76 641.75,-284.76 641.75,-290.76 641.75,-290.76 641.75,-328.68 641.75,-328.68 641.75,-334.68 635.75,-340.68 629.75,-340.68"/>
<text xml:space="preserve" text-anchor="middle" x="538" y="-315.12" font-family="Heiti SC, PingFang SC, Microsoft YaHei, Arial, sans-serif" font-size="18.00" fill="#71400d">任务头：288 → 256</text>
<text xml:space="preserve" text-anchor="middle" x="538" y="-293.52" font-family="Heiti SC, PingFang SC, Microsoft YaHei, Arial, sans-serif" font-size="18.00" fill="#71400d">Dense + BN + GELU</text>
</g>
<!-- fuse&#45;&gt;head1 -->
<g id="edge18" class="edge">
<title>fuse&#45;&gt;head1</title>
<path fill="none" stroke="#607388" stroke-width="1.15" d="M538,-371.36C538,-364.38 538,-357.15 538,-350.22"/>
<polygon fill="#607388" stroke="#607388" stroke-width="1.15" points="540.63,-350.24 538,-342.74 535.38,-350.24 540.63,-350.24"/>
</g>
<!-- head2 -->
<g id="node18" class="node">
<title>head2</title>
<path fill="#fff0d4" stroke="#ca8425" stroke-width="1.1" d="M629.75,-247.76C629.75,-247.76 446.25,-247.76 446.25,-247.76 440.25,-247.76 434.25,-241.76 434.25,-235.76 434.25,-235.76 434.25,-197.84 434.25,-197.84 434.25,-191.84 440.25,-185.84 446.25,-185.84 446.25,-185.84 629.75,-185.84 629.75,-185.84 635.75,-185.84 641.75,-191.84 641.75,-197.84 641.75,-197.84 641.75,-235.76 641.75,-235.76 641.75,-241.76 635.75,-247.76 629.75,-247.76"/>
<text xml:space="preserve" text-anchor="middle" x="538" y="-222.2" font-family="Heiti SC, PingFang SC, Microsoft YaHei, Arial, sans-serif" font-size="18.00" fill="#71400d">任务头：256 → 128</text>
<text xml:space="preserve" text-anchor="middle" x="538" y="-200.6" font-family="Heiti SC, PingFang SC, Microsoft YaHei, Arial, sans-serif" font-size="18.00" fill="#71400d">Dense + BN + GELU</text>
</g>
<!-- head1&#45;&gt;head2 -->
<g id="edge19" class="edge">
<title>head1&#45;&gt;head2</title>
<path fill="none" stroke="#607388" stroke-width="1.15" d="M538,-278.44C538,-271.62 538,-264.27 538,-257.13"/>
<polygon fill="#607388" stroke="#607388" stroke-width="1.15" points="540.63,-257.49 538,-249.99 535.38,-257.49 540.63,-257.49"/>
</g>
<!-- logit -->
<g id="node19" class="node">
<title>logit</title>
<path fill="#edf4fc" stroke="#7290b1" stroke-width="1.1" d="M637.31,-154.84C637.31,-154.84 438.69,-154.84 438.69,-154.84 432.69,-154.84 426.69,-148.84 426.69,-142.84 426.69,-142.84 426.69,-104.92 426.69,-104.92 426.69,-98.92 432.69,-92.92 438.69,-92.92 438.69,-92.92 637.31,-92.92 637.31,-92.92 643.31,-92.92 649.31,-98.92 649.31,-104.92 649.31,-104.92 649.31,-142.84 649.31,-142.84 649.31,-148.84 643.31,-154.84 637.31,-154.84"/>
<text xml:space="preserve" text-anchor="middle" x="538" y="-129.28" font-family="Heiti SC, PingFang SC, Microsoft YaHei, Arial, sans-serif" font-size="18.00" fill="#183a5e">线性层 → 1维</text>
<text xml:space="preserve" text-anchor="middle" x="538" y="-107.68" font-family="Heiti SC, PingFang SC, Microsoft YaHei, Arial, sans-serif" font-size="18.00" fill="#183a5e">Logit 裁剪 [&#45;50,50]</text>
</g>
<!-- head2&#45;&gt;logit -->
<g id="edge20" class="edge">
<title>head2&#45;&gt;logit</title>
<path fill="none" stroke="#607388" stroke-width="1.15" d="M538,-185.52C538,-178.7 538,-171.35 538,-164.21"/>
<polygon fill="#607388" stroke="#607388" stroke-width="1.15" points="540.63,-164.57 538,-157.07 535.38,-164.57 540.63,-164.57"/>
</g>
<!-- output -->
<g id="node20" class="node">
<title>output</title>
<path fill="#244968" stroke="#244968" stroke-width="1.1" d="M600.77,-61.92C600.77,-61.92 475.23,-61.92 475.23,-61.92 469.23,-61.92 463.23,-55.92 463.23,-49.92 463.23,-49.92 463.23,-12 463.23,-12 463.23,-6 469.23,0 475.23,0 475.23,0 600.77,0 600.77,0 606.77,0 612.77,-6 612.77,-12 612.77,-12 612.77,-49.92 612.77,-49.92 612.77,-55.92 606.77,-61.92 600.77,-61.92"/>
<text xml:space="preserve" text-anchor="middle" x="538" y="-36.36" font-family="Heiti SC, PingFang SC, Microsoft YaHei, Arial, sans-serif" font-size="18.00" fill="#ffffff">Sigmoid</text>
<text xml:space="preserve" text-anchor="middle" x="538" y="-14.76" font-family="Heiti SC, PingFang SC, Microsoft YaHei, Arial, sans-serif" font-size="18.00" fill="#ffffff">fst_CVR 预估</text>
</g>
<!-- logit&#45;&gt;output -->
<g id="edge21" class="edge">
<title>logit&#45;&gt;output</title>
<path fill="none" stroke="#607388" stroke-width="1.15" d="M538,-92.6C538,-85.78 538,-78.43 538,-71.29"/>
<polygon fill="#607388" stroke="#607388" stroke-width="1.15" points="540.63,-71.65 538,-64.15 535.38,-71.65 540.63,-71.65"/>
</g>
</g>
</g><text x="30" y="1922" font-family="Heiti SC, Arial, sans-serif" font-size="12" fill="#6d7f90">省略 batch 维；同名操作的不同阶段不代表参数共享。</text></svg>